<mxfile host="app.diagrams.net" agent="Mozilla/5.0 (X11; Linux x86_64) AppleWebKit/537.36 (KHTML, like Gecko) Chrome/129.0.0.0 Safari/537.36" version="24.7.17">
  <diagram name="Page-1" id="u8cVY0NsGLtbhfLUwWa5">
    <mxGraphModel dx="1368" dy="788" grid="1" gridSize="10" guides="1" tooltips="1" connect="1" arrows="1" fold="1" page="1" pageScale="1" pageWidth="827" pageHeight="1169" math="0" shadow="0">
      <root>
        <mxCell id="0" />
        <mxCell id="1" parent="0" />
        <mxCell id="88rC2G_IcgtTIuXn6tbp-2" value="KUBE" style="verticalLabelPosition=bottom;verticalAlign=top;html=1;shape=mxgraph.basic.polygon;polyCoords=[[0.25,0],[0.75,0],[1,0.25],[1,0.75],[0.75,1],[0.25,1],[0,0.75],[0,0.25]];polyline=0;fillColor=#60a917;fontColor=#302222;strokeColor=#2D7600;" vertex="1" parent="1">
          <mxGeometry x="278" y="275" width="260" height="260" as="geometry" />
        </mxCell>
        <mxCell id="88rC2G_IcgtTIuXn6tbp-1" value="JENKINS" style="rounded=1;whiteSpace=wrap;html=1;fillColor=#1ba1e2;fontColor=#ffffff;strokeColor=#006EAF;fontStyle=1" vertex="1" parent="1">
          <mxGeometry x="354" y="400" width="120" height="60" as="geometry" />
        </mxCell>
        <mxCell id="88rC2G_IcgtTIuXn6tbp-3" style="edgeStyle=orthogonalEdgeStyle;rounded=0;orthogonalLoop=1;jettySize=auto;html=1;" edge="1" parent="1" source="88rC2G_IcgtTIuXn6tbp-2" target="88rC2G_IcgtTIuXn6tbp-2">
          <mxGeometry relative="1" as="geometry" />
        </mxCell>
        <mxCell id="88rC2G_IcgtTIuXn6tbp-4" value="KUBE API&lt;div&gt;&lt;br&gt;&lt;/div&gt;" style="edgeStyle=elbowEdgeStyle;elbow=horizontal;endArrow=classic;html=1;curved=0;rounded=0;endSize=8;startSize=8;strokeWidth=4;" edge="1" parent="1">
          <mxGeometry width="50" height="50" relative="1" as="geometry">
            <mxPoint x="392" y="405" as="sourcePoint" />
            <mxPoint x="442" y="355" as="targetPoint" />
          </mxGeometry>
        </mxCell>
      </root>
    </mxGraphModel>
  </diagram>
</mxfile>
